<?xml version="1.0" standalone="no"?>
<!DOCTYPE svg PUBLIC "-//W3C//DTD SVG 20010904//EN"
 "http://www.w3.org/TR/2001/REC-SVG-20010904/DTD/svg10.dtd">
<svg version="1.0" xmlns="http://www.w3.org/2000/svg"
 width="1024.000000pt" height="1024.000000pt" viewBox="0 0 1024.000000 1024.000000"
 preserveAspectRatio="xMidYMid meet">
<metadata>
Created by potrace 1.11, written by Peter Selinger 2001-2013
</metadata>
<g transform="translate(0.000000,1024.000000) scale(0.100000,-0.100000)"
fill="#000000" stroke="none">
<path d="M5027 9834 c-1 -1 -47 -5 -102 -8 -55 -4 -116 -9 -135 -12 -80 -10
-95 -13 -95 -14 0 -1 -15 -3 -33 -6 -130 -17 -429 -118 -592 -200 -598 -301
-1120 -888 -1453 -1634 -33 -72 -76 -189 -116 -314 -69 -211 -135 -510 -156
-711 -4 -33 -9 -73 -11 -90 -25 -206 -25 -733 1 -975 6 -57 25 -203 30 -232 6
-33 11 -61 25 -143 14 -75 75 -318 103 -405 124 -394 317 -769 565 -1098 52
-70 100 -131 107 -137 6 -5 31 -35 56 -65 24 -30 96 -107 161 -171 87 -87 124
-133 148 -180 47 -95 125 -268 182 -404 54 -131 62 -152 136 -362 l50 -143
-116 -1 c-120 0 -170 -3 -282 -15 -36 -4 -74 -8 -85 -9 -33 -3 -116 -15 -185
-27 -36 -5 -74 -12 -85 -13 -11 -2 -47 -10 -80 -18 -33 -9 -71 -18 -85 -21
-56 -11 -213 -57 -330 -97 -714 -241 -1366 -734 -1937 -1464 -104 -134 -258
-354 -311 -446 -130 -224 -168 -292 -198 -350 l-34 -69 4951 0 4950 0 -45 84
c-61 115 -57 107 -129 231 -59 101 -156 256 -175 280 -4 6 -23 33 -42 60 -243
359 -631 778 -976 1055 -462 370 -1039 643 -1584 746 -14 3 -56 11 -95 19 -38
8 -92 17 -120 20 -82 9 -138 16 -165 21 -14 2 -106 7 -205 10 -99 4 -182 8
-184 10 -6 5 73 237 135 396 64 166 96 241 184 424 67 140 70 143 182 255 284
285 500 590 694 980 30 60 54 111 54 114 0 6 16 44 55 130 16 35 114 324 119
352 3 10 18 72 35 138 16 66 33 136 36 155 3 19 10 58 15 85 5 28 12 67 16 89
3 21 7 46 9 55 10 55 19 148 32 316 10 128 9 543 0 660 -12 134 -16 176 -22
220 -3 22 -8 56 -10 75 -13 94 -19 125 -46 260 -17 80 -32 155 -35 167 -2 12
-25 90 -50 175 -175 588 -498 1121 -930 1538 -60 58 -132 123 -159 145 -27 22
-59 48 -70 59 -48 44 -310 209 -421 265 -67 34 -125 61 -128 61 -3 0 -25 9
-49 19 -101 46 -335 113 -453 131 -43 6 -90 13 -104 16 -14 3 -90 7 -170 10
-80 3 -166 6 -193 8 -26 1 -48 2 -50 0z"/>
</g>
</svg>
